<mxfile host="app.diagrams.net" agent="Mozilla/5.0 (Windows NT 10.0; Win64; x64) AppleWebKit/537.36 (KHTML, like Gecko) Chrome/134.0.0.0 Safari/537.36" version="26.1.1" pages="4">
  <diagram name="Страница — 1" id="1sC_ozIK2PUv3xYnsVI3">
    <mxGraphModel dx="1687" dy="878" grid="1" gridSize="10" guides="1" tooltips="1" connect="1" arrows="1" fold="1" page="1" pageScale="1" pageWidth="827" pageHeight="1169" math="0" shadow="0">
      <root>
        <mxCell id="0" />
        <mxCell id="1" parent="0" />
        <mxCell id="SWQnZypEheabWe8AsGXf-1" value="&lt;pre style=&quot;margin-left: 0px; margin-bottom: 12px;&quot;&gt;&lt;font style=&quot;color: rgb(0, 0, 0); font-size: 10px;&quot;&gt;Вызов &lt;/font&gt;FormulaAST::Execute(&lt;span style=&quot;background-color: transparent; color: light-dark(rgb(0, 0, 0), rgb(237, 237, 237)); white-space: normal; font-size: 10px; font-family: Consolas, &amp;quot;Courier New&amp;quot;, monospace;&quot;&gt;const &lt;/span&gt;&lt;span style=&quot;background-color: transparent; color: light-dark(rgb(0, 0, 0), rgb(237, 237, 237)); white-space: normal; font-size: 10px; font-family: Consolas, &amp;quot;Courier New&amp;quot;, monospace;&quot;&gt;SheetInterface&lt;/span&gt;&lt;span style=&quot;background-color: transparent; color: light-dark(rgb(0, 0, 0), rgb(237, 237, 237)); white-space: normal; font-size: 10px; font-family: Consolas, &amp;quot;Courier New&amp;quot;, monospace;&quot;&gt;&amp;amp; sheet&lt;/span&gt;&lt;span style=&quot;background-color: transparent; color: light-dark(rgb(0, 0, 0), rgb(237, 237, 237)); font-size: 10px; font-family: Helvetica; white-space: normal;&quot;&gt;)&lt;/span&gt;&lt;/pre&gt;" style="strokeWidth=2;html=1;shape=mxgraph.flowchart.terminator;whiteSpace=wrap;" vertex="1" parent="1">
          <mxGeometry x="309" y="40" width="210" height="60" as="geometry" />
        </mxCell>
        <mxCell id="SWQnZypEheabWe8AsGXf-4" value="&lt;font style=&quot;font-size: 10px;&quot;&gt;Корень дерева (root_expr_)&lt;/font&gt;&lt;div&gt;&lt;font style=&quot;font-size: 10px;&quot;&gt;существует?&lt;/font&gt;&lt;/div&gt;" style="rhombus;whiteSpace=wrap;html=1;" vertex="1" parent="1">
          <mxGeometry x="319" y="130" width="190" height="80" as="geometry" />
        </mxCell>
        <mxCell id="SWQnZypEheabWe8AsGXf-7" value="&lt;font style=&quot;font-size: 10px;&quot;&gt;Нет&lt;/font&gt;" style="text;html=1;align=center;verticalAlign=middle;resizable=0;points=[];autosize=1;strokeColor=none;fillColor=none;" vertex="1" parent="1">
          <mxGeometry x="503" y="140" width="40" height="30" as="geometry" />
        </mxCell>
        <mxCell id="SWQnZypEheabWe8AsGXf-8" value="&lt;font style=&quot;font-size: 10px;&quot;&gt;Да&lt;/font&gt;" style="text;html=1;align=center;verticalAlign=middle;resizable=0;points=[];autosize=1;strokeColor=none;fillColor=none;" vertex="1" parent="1">
          <mxGeometry x="380" y="200" width="40" height="30" as="geometry" />
        </mxCell>
        <mxCell id="SWQnZypEheabWe8AsGXf-10" value="&lt;font style=&quot;font-size: 10px;&quot;&gt;Возврат 0.0&lt;/font&gt;" style="strokeWidth=2;html=1;shape=mxgraph.flowchart.terminator;whiteSpace=wrap;" vertex="1" parent="1">
          <mxGeometry x="550" y="140" width="120" height="60" as="geometry" />
        </mxCell>
        <mxCell id="SWQnZypEheabWe8AsGXf-11" value="&lt;div&gt;&lt;font style=&quot;font-size: 10px;&quot;&gt;&lt;div style=&quot;font-size: 12px;&quot;&gt;&lt;font style=&quot;font-size: 10px;&quot;&gt;Evaluate(sheet) для&lt;/font&gt;&lt;/div&gt;&lt;div style=&quot;font-size: 12px;&quot;&gt;&lt;font style=&quot;font-size: 10px;&quot;&gt;корня дерева&lt;/font&gt;&lt;/div&gt;&lt;/font&gt;&lt;/div&gt;&lt;font style=&quot;font-size: 10px;&quot;&gt;Тип узла?&lt;/font&gt;" style="rhombus;whiteSpace=wrap;html=1;" vertex="1" parent="1">
          <mxGeometry x="319" y="250" width="190" height="80" as="geometry" />
        </mxCell>
        <mxCell id="SWQnZypEheabWe8AsGXf-13" value="&lt;font style=&quot;font-size: 10px;&quot;&gt;Число&lt;/font&gt;" style="text;html=1;align=center;verticalAlign=middle;resizable=0;points=[];autosize=1;strokeColor=none;fillColor=none;" vertex="1" parent="1">
          <mxGeometry x="493" y="260" width="50" height="30" as="geometry" />
        </mxCell>
        <mxCell id="SWQnZypEheabWe8AsGXf-14" value="&lt;font style=&quot;font-size: 10px;&quot;&gt;Возврат числа&lt;/font&gt;" style="strokeWidth=2;html=1;shape=mxgraph.flowchart.terminator;whiteSpace=wrap;" vertex="1" parent="1">
          <mxGeometry x="550" y="260" width="120" height="60" as="geometry" />
        </mxCell>
        <mxCell id="SWQnZypEheabWe8AsGXf-16" value="&lt;font style=&quot;font-size: 10px;&quot;&gt;Оператор (+, -, *, /)&lt;/font&gt;" style="text;html=1;align=center;verticalAlign=middle;resizable=0;points=[];autosize=1;strokeColor=none;fillColor=none;" vertex="1" parent="1">
          <mxGeometry x="237" y="260" width="110" height="30" as="geometry" />
        </mxCell>
        <mxCell id="SWQnZypEheabWe8AsGXf-19" value="&lt;font style=&quot;font-size: 10px;&quot;&gt;Выполнение операции и возврат результата&lt;/font&gt;" style="strokeWidth=2;html=1;shape=mxgraph.flowchart.terminator;whiteSpace=wrap;" vertex="1" parent="1">
          <mxGeometry x="80" y="360" width="140" height="60" as="geometry" />
        </mxCell>
        <mxCell id="SWQnZypEheabWe8AsGXf-21" value="&lt;font style=&quot;font-size: 10px;&quot;&gt;CellExpr (ссылка на ячейку)&lt;/font&gt;" style="text;html=1;align=center;verticalAlign=middle;resizable=0;points=[];autosize=1;strokeColor=none;fillColor=none;" vertex="1" parent="1">
          <mxGeometry x="270" y="320" width="150" height="30" as="geometry" />
        </mxCell>
        <mxCell id="SWQnZypEheabWe8AsGXf-23" value="&lt;span style=&quot;font-size: 10px;&quot;&gt;Рекурсивный вызов Evaluate для операндов&lt;/span&gt;" style="rounded=0;whiteSpace=wrap;html=1;" vertex="1" parent="1">
          <mxGeometry x="80" y="260" width="140" height="60" as="geometry" />
        </mxCell>
        <mxCell id="SWQnZypEheabWe8AsGXf-24" value="&lt;span style=&quot;font-size: 10px;&quot;&gt;Получение ячейки из sheet.GetCell(pos_)&lt;/span&gt;" style="rounded=0;whiteSpace=wrap;html=1;" vertex="1" parent="1">
          <mxGeometry x="354" y="360" width="120" height="60" as="geometry" />
        </mxCell>
        <mxCell id="SWQnZypEheabWe8AsGXf-26" value="&lt;font style=&quot;font-size: 10px;&quot;&gt;Ячейка существует?&lt;/font&gt;" style="rhombus;whiteSpace=wrap;html=1;" vertex="1" parent="1">
          <mxGeometry x="346" y="450" width="136" height="80" as="geometry" />
        </mxCell>
        <mxCell id="SWQnZypEheabWe8AsGXf-29" value="&lt;font style=&quot;font-size: 10px;&quot;&gt;Возврат 0.0&lt;/font&gt;" style="strokeWidth=2;html=1;shape=mxgraph.flowchart.terminator;whiteSpace=wrap;" vertex="1" parent="1">
          <mxGeometry x="531" y="460" width="115" height="60" as="geometry" />
        </mxCell>
        <mxCell id="SWQnZypEheabWe8AsGXf-30" value="&lt;font style=&quot;font-size: 10px;&quot;&gt;Нет&lt;/font&gt;" style="text;html=1;align=center;verticalAlign=middle;resizable=0;points=[];autosize=1;strokeColor=none;fillColor=none;" vertex="1" parent="1">
          <mxGeometry x="479" y="460" width="40" height="30" as="geometry" />
        </mxCell>
        <mxCell id="SWQnZypEheabWe8AsGXf-31" value="&lt;font style=&quot;font-size: 10px;&quot;&gt;Да&lt;/font&gt;" style="text;html=1;align=center;verticalAlign=middle;resizable=0;points=[];autosize=1;strokeColor=none;fillColor=none;" vertex="1" parent="1">
          <mxGeometry x="376" y="520" width="40" height="30" as="geometry" />
        </mxCell>
        <mxCell id="SWQnZypEheabWe8AsGXf-32" value="&lt;font style=&quot;font-size: 10px;&quot;&gt;Получение значения ячейки cell-&amp;gt;GetValue()&lt;/font&gt;" style="rounded=0;whiteSpace=wrap;html=1;" vertex="1" parent="1">
          <mxGeometry x="354" y="560" width="120" height="60" as="geometry" />
        </mxCell>
        <mxCell id="SWQnZypEheabWe8AsGXf-34" value="&lt;font style=&quot;font-size: 10px;&quot;&gt;Тип значения?&lt;/font&gt;" style="rhombus;whiteSpace=wrap;html=1;" vertex="1" parent="1">
          <mxGeometry x="344" y="640" width="140" height="80" as="geometry" />
        </mxCell>
        <mxCell id="SWQnZypEheabWe8AsGXf-36" value="&lt;font style=&quot;font-size: 10px;&quot;&gt;Возврат числа&lt;/font&gt;" style="strokeWidth=2;html=1;shape=mxgraph.flowchart.terminator;whiteSpace=wrap;" vertex="1" parent="1">
          <mxGeometry x="539" y="650" width="117" height="60" as="geometry" />
        </mxCell>
        <mxCell id="SWQnZypEheabWe8AsGXf-38" value="&lt;font style=&quot;font-size: 10px;&quot;&gt;Число&lt;/font&gt;" style="text;html=1;align=center;verticalAlign=middle;resizable=0;points=[];autosize=1;strokeColor=none;fillColor=none;" vertex="1" parent="1">
          <mxGeometry x="476" y="650" width="50" height="30" as="geometry" />
        </mxCell>
        <mxCell id="SWQnZypEheabWe8AsGXf-39" value="&lt;font style=&quot;font-size: 10px;&quot;&gt;Строка&lt;/font&gt;" style="text;html=1;align=center;verticalAlign=middle;resizable=0;points=[];autosize=1;strokeColor=none;fillColor=none;" vertex="1" parent="1">
          <mxGeometry x="360" y="710" width="60" height="30" as="geometry" />
        </mxCell>
        <mxCell id="SWQnZypEheabWe8AsGXf-40" value="&lt;font style=&quot;font-size: 10px;&quot;&gt;Попытка преобразования в число&lt;/font&gt;" style="rounded=0;whiteSpace=wrap;html=1;" vertex="1" parent="1">
          <mxGeometry x="354" y="750" width="120" height="60" as="geometry" />
        </mxCell>
        <mxCell id="SWQnZypEheabWe8AsGXf-41" value="&lt;font style=&quot;font-size: 10px;&quot;&gt;Преобразование удалось?&lt;/font&gt;" style="rhombus;whiteSpace=wrap;html=1;" vertex="1" parent="1">
          <mxGeometry x="344" y="836" width="140" height="80" as="geometry" />
        </mxCell>
        <mxCell id="SWQnZypEheabWe8AsGXf-45" value="&lt;font style=&quot;font-size: 10px;&quot;&gt;Да&lt;/font&gt;" style="text;html=1;align=center;verticalAlign=middle;resizable=0;points=[];autosize=1;strokeColor=none;fillColor=none;" vertex="1" parent="1">
          <mxGeometry x="476" y="846" width="40" height="30" as="geometry" />
        </mxCell>
        <mxCell id="SWQnZypEheabWe8AsGXf-46" value="&lt;font style=&quot;font-size: 10px;&quot;&gt;Возврат числа&lt;/font&gt;" style="strokeWidth=2;html=1;shape=mxgraph.flowchart.terminator;whiteSpace=wrap;" vertex="1" parent="1">
          <mxGeometry x="526" y="846" width="120" height="60" as="geometry" />
        </mxCell>
        <mxCell id="SWQnZypEheabWe8AsGXf-47" value="&lt;font style=&quot;font-size: 10px;&quot;&gt;Нет&lt;/font&gt;" style="text;html=1;align=center;verticalAlign=middle;resizable=0;points=[];autosize=1;strokeColor=none;fillColor=none;" vertex="1" parent="1">
          <mxGeometry x="370" y="906" width="40" height="30" as="geometry" />
        </mxCell>
        <mxCell id="SWQnZypEheabWe8AsGXf-50" value="&lt;font style=&quot;font-size: 10px;&quot;&gt;Возврат&lt;/font&gt;&lt;div&gt;&lt;span style=&quot;font-size: 10px;&quot;&gt;FormulaError::Value&lt;/span&gt;&lt;/div&gt;" style="strokeWidth=2;html=1;shape=mxgraph.flowchart.terminator;whiteSpace=wrap;" vertex="1" parent="1">
          <mxGeometry x="186" y="650" width="120" height="60" as="geometry" />
        </mxCell>
        <mxCell id="SWQnZypEheabWe8AsGXf-51" value="&lt;font style=&quot;font-size: 10px;&quot;&gt;FormulaError&lt;/font&gt;" style="text;html=1;align=center;verticalAlign=middle;resizable=0;points=[];autosize=1;strokeColor=none;fillColor=none;" vertex="1" parent="1">
          <mxGeometry x="296" y="640" width="80" height="30" as="geometry" />
        </mxCell>
        <mxCell id="SWQnZypEheabWe8AsGXf-52" value="&lt;font style=&quot;font-size: 10px;&quot;&gt;Возврат FormulaError::Value&lt;/font&gt;" style="strokeWidth=2;html=1;shape=mxgraph.flowchart.terminator;whiteSpace=wrap;" vertex="1" parent="1">
          <mxGeometry x="354" y="938" width="120" height="60" as="geometry" />
        </mxCell>
        <mxCell id="3nbZfd2NfBRjyzCu_6iG-1" value="" style="endArrow=classic;html=1;rounded=0;entryX=0.5;entryY=0;entryDx=0;entryDy=0;exitX=0.5;exitY=1;exitDx=0;exitDy=0;exitPerimeter=0;" edge="1" parent="1" source="SWQnZypEheabWe8AsGXf-1" target="SWQnZypEheabWe8AsGXf-4">
          <mxGeometry width="50" height="50" relative="1" as="geometry">
            <mxPoint x="280" y="150" as="sourcePoint" />
            <mxPoint x="330" y="100" as="targetPoint" />
          </mxGeometry>
        </mxCell>
        <mxCell id="3nbZfd2NfBRjyzCu_6iG-2" value="" style="endArrow=classic;html=1;rounded=0;" edge="1" parent="1" target="SWQnZypEheabWe8AsGXf-10">
          <mxGeometry width="50" height="50" relative="1" as="geometry">
            <mxPoint x="510" y="170" as="sourcePoint" />
            <mxPoint x="300" y="120" as="targetPoint" />
          </mxGeometry>
        </mxCell>
        <mxCell id="3nbZfd2NfBRjyzCu_6iG-3" value="" style="endArrow=classic;html=1;rounded=0;entryX=0.5;entryY=0;entryDx=0;entryDy=0;exitX=0.5;exitY=1;exitDx=0;exitDy=0;" edge="1" parent="1" source="SWQnZypEheabWe8AsGXf-4" target="SWQnZypEheabWe8AsGXf-11">
          <mxGeometry width="50" height="50" relative="1" as="geometry">
            <mxPoint x="460" y="220" as="sourcePoint" />
            <mxPoint x="280" y="180" as="targetPoint" />
          </mxGeometry>
        </mxCell>
        <mxCell id="3nbZfd2NfBRjyzCu_6iG-5" value="" style="endArrow=classic;html=1;rounded=0;entryX=0;entryY=0.5;entryDx=0;entryDy=0;entryPerimeter=0;exitX=1;exitY=0.5;exitDx=0;exitDy=0;" edge="1" parent="1" source="SWQnZypEheabWe8AsGXf-11" target="SWQnZypEheabWe8AsGXf-14">
          <mxGeometry width="50" height="50" relative="1" as="geometry">
            <mxPoint x="480" y="380" as="sourcePoint" />
            <mxPoint x="530" y="330" as="targetPoint" />
          </mxGeometry>
        </mxCell>
        <mxCell id="3nbZfd2NfBRjyzCu_6iG-6" value="" style="endArrow=classic;html=1;rounded=0;entryX=1;entryY=0.5;entryDx=0;entryDy=0;exitX=0;exitY=0.5;exitDx=0;exitDy=0;" edge="1" parent="1" source="SWQnZypEheabWe8AsGXf-11" target="SWQnZypEheabWe8AsGXf-23">
          <mxGeometry width="50" height="50" relative="1" as="geometry">
            <mxPoint x="150" y="240" as="sourcePoint" />
            <mxPoint x="200" y="190" as="targetPoint" />
          </mxGeometry>
        </mxCell>
        <mxCell id="3nbZfd2NfBRjyzCu_6iG-7" value="" style="endArrow=classic;html=1;rounded=0;exitX=0.5;exitY=1;exitDx=0;exitDy=0;entryX=0.5;entryY=0;entryDx=0;entryDy=0;" edge="1" parent="1" source="SWQnZypEheabWe8AsGXf-11" target="SWQnZypEheabWe8AsGXf-24">
          <mxGeometry width="50" height="50" relative="1" as="geometry">
            <mxPoint x="510" y="390" as="sourcePoint" />
            <mxPoint x="560" y="340" as="targetPoint" />
          </mxGeometry>
        </mxCell>
        <mxCell id="3nbZfd2NfBRjyzCu_6iG-8" value="" style="endArrow=classic;html=1;rounded=0;entryX=0.5;entryY=0;entryDx=0;entryDy=0;entryPerimeter=0;exitX=0.5;exitY=1;exitDx=0;exitDy=0;" edge="1" parent="1" source="SWQnZypEheabWe8AsGXf-23" target="SWQnZypEheabWe8AsGXf-19">
          <mxGeometry width="50" height="50" relative="1" as="geometry">
            <mxPoint x="40" y="390" as="sourcePoint" />
            <mxPoint x="90" y="340" as="targetPoint" />
          </mxGeometry>
        </mxCell>
        <mxCell id="3nbZfd2NfBRjyzCu_6iG-9" value="" style="endArrow=classic;html=1;rounded=0;entryX=0.5;entryY=0;entryDx=0;entryDy=0;exitX=0.5;exitY=1;exitDx=0;exitDy=0;" edge="1" parent="1" source="SWQnZypEheabWe8AsGXf-24" target="SWQnZypEheabWe8AsGXf-26">
          <mxGeometry width="50" height="50" relative="1" as="geometry">
            <mxPoint x="280" y="490" as="sourcePoint" />
            <mxPoint x="330" y="440" as="targetPoint" />
          </mxGeometry>
        </mxCell>
        <mxCell id="3nbZfd2NfBRjyzCu_6iG-10" value="" style="endArrow=classic;html=1;rounded=0;exitX=1;exitY=0.5;exitDx=0;exitDy=0;entryX=0;entryY=0.5;entryDx=0;entryDy=0;entryPerimeter=0;" edge="1" parent="1" source="SWQnZypEheabWe8AsGXf-26" target="SWQnZypEheabWe8AsGXf-29">
          <mxGeometry width="50" height="50" relative="1" as="geometry">
            <mxPoint x="610" y="450" as="sourcePoint" />
            <mxPoint x="660" y="400" as="targetPoint" />
          </mxGeometry>
        </mxCell>
        <mxCell id="3nbZfd2NfBRjyzCu_6iG-14" value="" style="endArrow=classic;html=1;rounded=0;exitX=0.5;exitY=1;exitDx=0;exitDy=0;entryX=0.5;entryY=0;entryDx=0;entryDy=0;" edge="1" parent="1" source="SWQnZypEheabWe8AsGXf-26" target="SWQnZypEheabWe8AsGXf-32">
          <mxGeometry width="50" height="50" relative="1" as="geometry">
            <mxPoint x="560" y="600" as="sourcePoint" />
            <mxPoint x="610" y="550" as="targetPoint" />
          </mxGeometry>
        </mxCell>
        <mxCell id="3nbZfd2NfBRjyzCu_6iG-15" value="" style="endArrow=classic;html=1;rounded=0;exitX=0.5;exitY=1;exitDx=0;exitDy=0;" edge="1" parent="1" source="SWQnZypEheabWe8AsGXf-32" target="SWQnZypEheabWe8AsGXf-34">
          <mxGeometry width="50" height="50" relative="1" as="geometry">
            <mxPoint x="570" y="600" as="sourcePoint" />
            <mxPoint x="620" y="550" as="targetPoint" />
          </mxGeometry>
        </mxCell>
        <mxCell id="3nbZfd2NfBRjyzCu_6iG-16" value="" style="endArrow=classic;html=1;rounded=0;exitX=1;exitY=0.5;exitDx=0;exitDy=0;entryX=0;entryY=0.5;entryDx=0;entryDy=0;entryPerimeter=0;" edge="1" parent="1" source="SWQnZypEheabWe8AsGXf-34" target="SWQnZypEheabWe8AsGXf-36">
          <mxGeometry width="50" height="50" relative="1" as="geometry">
            <mxPoint x="520" y="780" as="sourcePoint" />
            <mxPoint x="570" y="730" as="targetPoint" />
          </mxGeometry>
        </mxCell>
        <mxCell id="3nbZfd2NfBRjyzCu_6iG-17" value="" style="endArrow=classic;html=1;rounded=0;exitX=0;exitY=0.5;exitDx=0;exitDy=0;entryX=1;entryY=0.5;entryDx=0;entryDy=0;entryPerimeter=0;" edge="1" parent="1" source="SWQnZypEheabWe8AsGXf-34" target="SWQnZypEheabWe8AsGXf-50">
          <mxGeometry width="50" height="50" relative="1" as="geometry">
            <mxPoint x="550" y="800" as="sourcePoint" />
            <mxPoint x="600" y="750" as="targetPoint" />
          </mxGeometry>
        </mxCell>
        <mxCell id="3nbZfd2NfBRjyzCu_6iG-18" value="" style="endArrow=classic;html=1;rounded=0;exitX=0.5;exitY=1;exitDx=0;exitDy=0;entryX=0.5;entryY=0;entryDx=0;entryDy=0;" edge="1" parent="1" source="SWQnZypEheabWe8AsGXf-34" target="SWQnZypEheabWe8AsGXf-40">
          <mxGeometry width="50" height="50" relative="1" as="geometry">
            <mxPoint x="250" y="820" as="sourcePoint" />
            <mxPoint x="300" y="770" as="targetPoint" />
          </mxGeometry>
        </mxCell>
        <mxCell id="3nbZfd2NfBRjyzCu_6iG-19" value="" style="endArrow=classic;html=1;rounded=0;entryX=0.5;entryY=0;entryDx=0;entryDy=0;exitX=0.5;exitY=1;exitDx=0;exitDy=0;" edge="1" parent="1" source="SWQnZypEheabWe8AsGXf-40" target="SWQnZypEheabWe8AsGXf-41">
          <mxGeometry width="50" height="50" relative="1" as="geometry">
            <mxPoint x="240" y="870" as="sourcePoint" />
            <mxPoint x="290" y="820" as="targetPoint" />
          </mxGeometry>
        </mxCell>
        <mxCell id="3nbZfd2NfBRjyzCu_6iG-20" value="" style="endArrow=classic;html=1;rounded=0;entryX=0;entryY=0.5;entryDx=0;entryDy=0;entryPerimeter=0;exitX=1;exitY=0.5;exitDx=0;exitDy=0;" edge="1" parent="1" source="SWQnZypEheabWe8AsGXf-41" target="SWQnZypEheabWe8AsGXf-46">
          <mxGeometry width="50" height="50" relative="1" as="geometry">
            <mxPoint x="210" y="1020" as="sourcePoint" />
            <mxPoint x="260" y="970" as="targetPoint" />
          </mxGeometry>
        </mxCell>
        <mxCell id="3nbZfd2NfBRjyzCu_6iG-21" value="" style="endArrow=classic;html=1;rounded=0;exitX=0.5;exitY=1;exitDx=0;exitDy=0;entryX=0.5;entryY=0;entryDx=0;entryDy=0;entryPerimeter=0;" edge="1" parent="1" source="SWQnZypEheabWe8AsGXf-41" target="SWQnZypEheabWe8AsGXf-52">
          <mxGeometry width="50" height="50" relative="1" as="geometry">
            <mxPoint x="270" y="1000" as="sourcePoint" />
            <mxPoint x="320" y="950" as="targetPoint" />
          </mxGeometry>
        </mxCell>
      </root>
    </mxGraphModel>
  </diagram>
  <diagram id="CDd9vFrtPSGJ-4IpnDb4" name="Страница — 2">
    <mxGraphModel dx="1434" dy="746" grid="1" gridSize="10" guides="1" tooltips="1" connect="1" arrows="1" fold="1" page="1" pageScale="1" pageWidth="827" pageHeight="1169" math="0" shadow="0">
      <root>
        <mxCell id="0" />
        <mxCell id="1" parent="0" />
        <mxCell id="3BzCbL-VSEICxpPIxTd--1" value="HasCircularDependencies(pos, dependencies)" style="strokeWidth=2;html=1;shape=mxgraph.flowchart.terminator;whiteSpace=wrap;fontSize=10;" vertex="1" parent="1">
          <mxGeometry x="439" y="60" width="150" height="60" as="geometry" />
        </mxCell>
        <mxCell id="3BzCbL-VSEICxpPIxTd--2" value="Создание множеств visited и recursionStack" style="rounded=0;whiteSpace=wrap;html=1;fontSize=10;" vertex="1" parent="1">
          <mxGeometry x="454" y="140" width="120" height="60" as="geometry" />
        </mxCell>
        <mxCell id="3BzCbL-VSEICxpPIxTd--3" value="Добавление pos в visited" style="rounded=0;whiteSpace=wrap;html=1;fontSize=10;" vertex="1" parent="1">
          <mxGeometry x="454" y="223" width="120" height="60" as="geometry" />
        </mxCell>
        <mxCell id="3BzCbL-VSEICxpPIxTd--4" value="Добавление pos в recursionStack" style="rounded=0;whiteSpace=wrap;html=1;fontSize=10;" vertex="1" parent="1">
          <mxGeometry x="454" y="306" width="120" height="60" as="geometry" />
        </mxCell>
        <mxCell id="3BzCbL-VSEICxpPIxTd--5" value="Для каждой dep из dependencies" style="strokeWidth=2;html=1;shape=mxgraph.flowchart.loop_limit;whiteSpace=wrap;fontSize=10;" vertex="1" parent="1">
          <mxGeometry x="464" y="388" width="100" height="60" as="geometry" />
        </mxCell>
        <mxCell id="3BzCbL-VSEICxpPIxTd--6" value="dep не в visited?" style="strokeWidth=2;html=1;shape=mxgraph.flowchart.decision;whiteSpace=wrap;fontSize=10;" vertex="1" parent="1">
          <mxGeometry x="464" y="519" width="100" height="60" as="geometry" />
        </mxCell>
        <mxCell id="3BzCbL-VSEICxpPIxTd--7" value="Рекурсивный вызов HasCircularDependencies(dep, dependencies_[dep])" style="strokeWidth=2;html=1;shape=mxgraph.flowchart.loop_limit;whiteSpace=wrap;fontSize=10;" vertex="1" parent="1">
          <mxGeometry x="269" y="519" width="150" height="60" as="geometry" />
        </mxCell>
        <mxCell id="3BzCbL-VSEICxpPIxTd--8" value="Рекурсивный вызов вернул true?" style="strokeWidth=2;html=1;shape=mxgraph.flowchart.decision;whiteSpace=wrap;fontSize=10;" vertex="1" parent="1">
          <mxGeometry x="284" y="610" width="120" height="70" as="geometry" />
        </mxCell>
        <mxCell id="3BzCbL-VSEICxpPIxTd--11" value="Возврат true (цикл найден)" style="strokeWidth=2;html=1;shape=mxgraph.flowchart.terminator;whiteSpace=wrap;fontSize=10;" vertex="1" parent="1">
          <mxGeometry x="294" y="790" width="100" height="60" as="geometry" />
        </mxCell>
        <mxCell id="3BzCbL-VSEICxpPIxTd--12" value="" style="endArrow=none;html=1;rounded=0;entryX=0.5;entryY=1;entryDx=0;entryDy=0;entryPerimeter=0;exitX=0.5;exitY=0;exitDx=0;exitDy=0;fontSize=10;" edge="1" parent="1" source="3BzCbL-VSEICxpPIxTd--2" target="3BzCbL-VSEICxpPIxTd--1">
          <mxGeometry width="50" height="50" relative="1" as="geometry">
            <mxPoint x="399" y="180" as="sourcePoint" />
            <mxPoint x="449" y="130" as="targetPoint" />
          </mxGeometry>
        </mxCell>
        <mxCell id="3BzCbL-VSEICxpPIxTd--13" value="" style="endArrow=none;html=1;rounded=0;entryX=0.5;entryY=1;entryDx=0;entryDy=0;exitX=0.5;exitY=0;exitDx=0;exitDy=0;fontSize=10;" edge="1" parent="1" source="3BzCbL-VSEICxpPIxTd--3" target="3BzCbL-VSEICxpPIxTd--2">
          <mxGeometry width="50" height="50" relative="1" as="geometry">
            <mxPoint x="369" y="270" as="sourcePoint" />
            <mxPoint x="419" y="220" as="targetPoint" />
          </mxGeometry>
        </mxCell>
        <mxCell id="3BzCbL-VSEICxpPIxTd--14" value="" style="endArrow=none;html=1;rounded=0;entryX=0.5;entryY=1;entryDx=0;entryDy=0;fontSize=10;" edge="1" parent="1" source="3BzCbL-VSEICxpPIxTd--4" target="3BzCbL-VSEICxpPIxTd--3">
          <mxGeometry width="50" height="50" relative="1" as="geometry">
            <mxPoint x="514" y="300" as="sourcePoint" />
            <mxPoint x="409" y="290" as="targetPoint" />
          </mxGeometry>
        </mxCell>
        <mxCell id="3BzCbL-VSEICxpPIxTd--15" value="" style="endArrow=none;html=1;rounded=0;entryX=0.5;entryY=1;entryDx=0;entryDy=0;exitX=0.5;exitY=0;exitDx=0;exitDy=0;exitPerimeter=0;fontSize=10;" edge="1" parent="1" source="3BzCbL-VSEICxpPIxTd--5" target="3BzCbL-VSEICxpPIxTd--4">
          <mxGeometry width="50" height="50" relative="1" as="geometry">
            <mxPoint x="369" y="430" as="sourcePoint" />
            <mxPoint x="419" y="380" as="targetPoint" />
          </mxGeometry>
        </mxCell>
        <mxCell id="3BzCbL-VSEICxpPIxTd--16" value="" style="endArrow=none;html=1;rounded=0;entryX=0.5;entryY=1;entryDx=0;entryDy=0;entryPerimeter=0;exitX=0.5;exitY=0;exitDx=0;exitDy=0;exitPerimeter=0;fontSize=10;" edge="1" parent="1" source="3BzCbL-VSEICxpPIxTd--6" target="3BzCbL-VSEICxpPIxTd--5">
          <mxGeometry width="50" height="50" relative="1" as="geometry">
            <mxPoint x="359" y="510" as="sourcePoint" />
            <mxPoint x="409" y="460" as="targetPoint" />
          </mxGeometry>
        </mxCell>
        <mxCell id="3BzCbL-VSEICxpPIxTd--17" value="" style="endArrow=none;html=1;rounded=0;exitX=1;exitY=0.5;exitDx=0;exitDy=0;exitPerimeter=0;fontSize=10;" edge="1" parent="1" source="3BzCbL-VSEICxpPIxTd--6">
          <mxGeometry width="50" height="50" relative="1" as="geometry">
            <mxPoint x="569" y="500" as="sourcePoint" />
            <mxPoint x="609" y="549" as="targetPoint" />
          </mxGeometry>
        </mxCell>
        <mxCell id="3BzCbL-VSEICxpPIxTd--19" value="Да" style="text;html=1;align=center;verticalAlign=middle;resizable=0;points=[];autosize=1;strokeColor=none;fillColor=none;fontSize=10;" vertex="1" parent="1">
          <mxGeometry x="433" y="527" width="40" height="30" as="geometry" />
        </mxCell>
        <mxCell id="3BzCbL-VSEICxpPIxTd--20" value="Нет" style="text;html=1;align=center;verticalAlign=middle;resizable=0;points=[];autosize=1;strokeColor=none;fillColor=none;fontSize=10;" vertex="1" parent="1">
          <mxGeometry x="564" y="527" width="40" height="30" as="geometry" />
        </mxCell>
        <mxCell id="3BzCbL-VSEICxpPIxTd--23" value="&lt;font&gt;dep в recursionStack?&lt;/font&gt;" style="strokeWidth=2;html=1;shape=mxgraph.flowchart.decision;whiteSpace=wrap;fontSize=10;" vertex="1" parent="1">
          <mxGeometry x="281.5" y="700" width="125" height="66" as="geometry" />
        </mxCell>
        <mxCell id="3BzCbL-VSEICxpPIxTd--24" value="Возврат true (цикл найден)" style="strokeWidth=2;html=1;shape=mxgraph.flowchart.terminator;whiteSpace=wrap;fontSize=10;" vertex="1" parent="1">
          <mxGeometry x="129" y="615" width="100" height="60" as="geometry" />
        </mxCell>
        <mxCell id="3BzCbL-VSEICxpPIxTd--25" value="" style="endArrow=none;html=1;rounded=0;entryX=0;entryY=0.5;entryDx=0;entryDy=0;entryPerimeter=0;exitX=1;exitY=0.5;exitDx=0;exitDy=0;exitPerimeter=0;fontSize=10;" edge="1" parent="1" source="3BzCbL-VSEICxpPIxTd--24" target="3BzCbL-VSEICxpPIxTd--8">
          <mxGeometry width="50" height="50" relative="1" as="geometry">
            <mxPoint x="269" y="380" as="sourcePoint" />
            <mxPoint x="319" y="330" as="targetPoint" />
          </mxGeometry>
        </mxCell>
        <mxCell id="3BzCbL-VSEICxpPIxTd--27" value="Да" style="text;html=1;align=center;verticalAlign=middle;resizable=0;points=[];autosize=1;strokeColor=none;fillColor=none;fontSize=10;" vertex="1" parent="1">
          <mxGeometry x="255.5" y="623" width="40" height="30" as="geometry" />
        </mxCell>
        <mxCell id="3BzCbL-VSEICxpPIxTd--31" value="Нет" style="text;html=1;align=center;verticalAlign=middle;resizable=0;points=[];autosize=1;strokeColor=none;fillColor=none;fontSize=10;" vertex="1" parent="1">
          <mxGeometry x="309" y="670" width="40" height="30" as="geometry" />
        </mxCell>
        <mxCell id="3BzCbL-VSEICxpPIxTd--32" value="" style="endArrow=none;html=1;rounded=0;fontSize=10;" edge="1" parent="1">
          <mxGeometry width="50" height="50" relative="1" as="geometry">
            <mxPoint x="109" y="733" as="sourcePoint" />
            <mxPoint x="109" y="410" as="targetPoint" />
          </mxGeometry>
        </mxCell>
        <mxCell id="3BzCbL-VSEICxpPIxTd--33" value="" style="endArrow=none;html=1;rounded=0;entryX=0;entryY=0.5;entryDx=0;entryDy=0;entryPerimeter=0;fontSize=10;" edge="1" parent="1" target="3BzCbL-VSEICxpPIxTd--23">
          <mxGeometry width="50" height="50" relative="1" as="geometry">
            <mxPoint x="109" y="733" as="sourcePoint" />
            <mxPoint x="249" y="720" as="targetPoint" />
          </mxGeometry>
        </mxCell>
        <mxCell id="3BzCbL-VSEICxpPIxTd--34" value="" style="endArrow=none;html=1;rounded=0;entryX=0.5;entryY=1;entryDx=0;entryDy=0;entryPerimeter=0;fontSize=10;" edge="1" parent="1" source="3BzCbL-VSEICxpPIxTd--11" target="3BzCbL-VSEICxpPIxTd--23">
          <mxGeometry width="50" height="50" relative="1" as="geometry">
            <mxPoint x="219" y="820" as="sourcePoint" />
            <mxPoint x="269" y="770" as="targetPoint" />
          </mxGeometry>
        </mxCell>
        <mxCell id="3BzCbL-VSEICxpPIxTd--35" value="Да" style="text;html=1;align=center;verticalAlign=middle;resizable=0;points=[];autosize=1;strokeColor=none;fillColor=none;fontSize=10;" vertex="1" parent="1">
          <mxGeometry x="332" y="755" width="40" height="30" as="geometry" />
        </mxCell>
        <mxCell id="3BzCbL-VSEICxpPIxTd--36" value="Нет" style="text;html=1;align=center;verticalAlign=middle;resizable=0;points=[];autosize=1;strokeColor=none;fillColor=none;fontSize=10;" vertex="1" parent="1">
          <mxGeometry x="251.5" y="712" width="40" height="30" as="geometry" />
        </mxCell>
        <mxCell id="3BzCbL-VSEICxpPIxTd--37" value="Удаление pos из recursionStack" style="rounded=0;whiteSpace=wrap;html=1;fontSize=10;" vertex="1" parent="1">
          <mxGeometry x="229" y="388" width="120" height="60" as="geometry" />
        </mxCell>
        <mxCell id="3BzCbL-VSEICxpPIxTd--38" value="Возврат false (цикл не найден)" style="strokeWidth=2;html=1;shape=mxgraph.flowchart.terminator;whiteSpace=wrap;fontSize=10;" vertex="1" parent="1">
          <mxGeometry x="239" y="283" width="100" height="60" as="geometry" />
        </mxCell>
        <mxCell id="3BzCbL-VSEICxpPIxTd--43" value="" style="endArrow=none;html=1;rounded=0;" edge="1" parent="1">
          <mxGeometry width="50" height="50" relative="1" as="geometry">
            <mxPoint x="344" y="690" as="sourcePoint" />
            <mxPoint x="609" y="690" as="targetPoint" />
          </mxGeometry>
        </mxCell>
        <mxCell id="3BzCbL-VSEICxpPIxTd--44" value="" style="endArrow=none;html=1;rounded=0;entryX=0.5;entryY=1;entryDx=0;entryDy=0;entryPerimeter=0;exitX=0.5;exitY=0;exitDx=0;exitDy=0;" edge="1" parent="1" source="3BzCbL-VSEICxpPIxTd--37" target="3BzCbL-VSEICxpPIxTd--38">
          <mxGeometry width="50" height="50" relative="1" as="geometry">
            <mxPoint x="99" y="360" as="sourcePoint" />
            <mxPoint x="149" y="310" as="targetPoint" />
          </mxGeometry>
        </mxCell>
        <mxCell id="3BzCbL-VSEICxpPIxTd--45" value="Нет" style="text;html=1;align=center;verticalAlign=middle;resizable=0;points=[];autosize=1;strokeColor=none;fillColor=none;" vertex="1" parent="1">
          <mxGeometry x="427" y="395" width="40" height="30" as="geometry" />
        </mxCell>
        <mxCell id="3BzCbL-VSEICxpPIxTd--46" value="Да" style="text;html=1;align=center;verticalAlign=middle;resizable=0;points=[];autosize=1;strokeColor=none;fillColor=none;" vertex="1" parent="1">
          <mxGeometry x="479" y="441" width="40" height="30" as="geometry" />
        </mxCell>
        <mxCell id="3BzCbL-VSEICxpPIxTd--53" value="" style="endArrow=classic;html=1;rounded=0;entryX=0.5;entryY=0;entryDx=0;entryDy=0;entryPerimeter=0;" edge="1" parent="1" source="3BzCbL-VSEICxpPIxTd--8" target="3BzCbL-VSEICxpPIxTd--23">
          <mxGeometry width="50" height="50" relative="1" as="geometry">
            <mxPoint x="220" y="720" as="sourcePoint" />
            <mxPoint x="270" y="670" as="targetPoint" />
          </mxGeometry>
        </mxCell>
        <mxCell id="3BzCbL-VSEICxpPIxTd--54" value="" style="endArrow=classic;html=1;rounded=0;entryX=0.5;entryY=0;entryDx=0;entryDy=0;entryPerimeter=0;exitX=0.5;exitY=1;exitDx=0;exitDy=0;exitPerimeter=0;" edge="1" parent="1" source="3BzCbL-VSEICxpPIxTd--7" target="3BzCbL-VSEICxpPIxTd--8">
          <mxGeometry width="50" height="50" relative="1" as="geometry">
            <mxPoint x="260" y="640" as="sourcePoint" />
            <mxPoint x="310" y="590" as="targetPoint" />
          </mxGeometry>
        </mxCell>
        <mxCell id="3BzCbL-VSEICxpPIxTd--55" value="" style="endArrow=classic;html=1;rounded=0;entryX=0.001;entryY=0.361;entryDx=0;entryDy=0;entryPerimeter=0;" edge="1" parent="1" target="3BzCbL-VSEICxpPIxTd--37">
          <mxGeometry width="50" height="50" relative="1" as="geometry">
            <mxPoint x="110" y="410" as="sourcePoint" />
            <mxPoint x="180" y="410" as="targetPoint" />
          </mxGeometry>
        </mxCell>
        <mxCell id="3BzCbL-VSEICxpPIxTd--57" value="" style="endArrow=classic;html=1;rounded=0;exitX=0;exitY=0.5;exitDx=0;exitDy=0;exitPerimeter=0;entryX=1;entryY=0.5;entryDx=0;entryDy=0;entryPerimeter=0;" edge="1" parent="1" source="3BzCbL-VSEICxpPIxTd--6" target="3BzCbL-VSEICxpPIxTd--7">
          <mxGeometry width="50" height="50" relative="1" as="geometry">
            <mxPoint x="380" y="520" as="sourcePoint" />
            <mxPoint x="430" y="470" as="targetPoint" />
          </mxGeometry>
        </mxCell>
        <mxCell id="3BzCbL-VSEICxpPIxTd--58" value="" style="endArrow=none;html=1;rounded=0;" edge="1" parent="1">
          <mxGeometry width="50" height="50" relative="1" as="geometry">
            <mxPoint x="609" y="689" as="sourcePoint" />
            <mxPoint x="609" y="549" as="targetPoint" />
          </mxGeometry>
        </mxCell>
        <mxCell id="3BzCbL-VSEICxpPIxTd--59" value="" style="endArrow=classic;html=1;rounded=0;entryX=1;entryY=0.5;entryDx=0;entryDy=0;exitX=0;exitY=0.5;exitDx=0;exitDy=0;exitPerimeter=0;" edge="1" parent="1" source="3BzCbL-VSEICxpPIxTd--5" target="3BzCbL-VSEICxpPIxTd--37">
          <mxGeometry width="50" height="50" relative="1" as="geometry">
            <mxPoint x="390" y="480" as="sourcePoint" />
            <mxPoint x="440" y="430" as="targetPoint" />
          </mxGeometry>
        </mxCell>
      </root>
    </mxGraphModel>
  </diagram>
  <diagram id="GYj31N99rbiy76qgRJk9" name="Страница — 3">
    <mxGraphModel dx="1434" dy="746" grid="1" gridSize="10" guides="1" tooltips="1" connect="1" arrows="1" fold="1" page="1" pageScale="1" pageWidth="827" pageHeight="1169" math="0" shadow="0">
      <root>
        <mxCell id="0" />
        <mxCell id="1" parent="0" />
        <mxCell id="QBS794zSs9PT1OMUkEBt-1" value="InvalidateCache(pos)" style="strokeWidth=2;html=1;shape=mxgraph.flowchart.terminator;whiteSpace=wrap;fontSize=10;" vertex="1" parent="1">
          <mxGeometry x="364" y="40" width="100" height="60" as="geometry" />
        </mxCell>
        <mxCell id="QBS794zSs9PT1OMUkEBt-2" value="Создание множества invalidated" style="rounded=0;whiteSpace=wrap;html=1;fontSize=10;" vertex="1" parent="1">
          <mxGeometry x="354" y="120" width="120" height="60" as="geometry" />
        </mxCell>
        <mxCell id="QBS794zSs9PT1OMUkEBt-3" value="Создание очереди queue" style="rounded=0;whiteSpace=wrap;html=1;fontSize=10;" vertex="1" parent="1">
          <mxGeometry x="354" y="204" width="120" height="60" as="geometry" />
        </mxCell>
        <mxCell id="QBS794zSs9PT1OMUkEBt-4" value="Добавление pos в queue и invalidated" style="rounded=0;whiteSpace=wrap;html=1;fontSize=10;" vertex="1" parent="1">
          <mxGeometry x="354" y="288" width="120" height="60" as="geometry" />
        </mxCell>
        <mxCell id="QBS794zSs9PT1OMUkEBt-5" value="queue не пуста?" style="rhombus;whiteSpace=wrap;html=1;fontSize=10;" vertex="1" parent="1">
          <mxGeometry x="349" y="380" width="130" height="80" as="geometry" />
        </mxCell>
        <mxCell id="QBS794zSs9PT1OMUkEBt-6" value="Конец, выход из цикла" style="strokeWidth=2;html=1;shape=mxgraph.flowchart.terminator;whiteSpace=wrap;fontSize=10;" vertex="1" parent="1">
          <mxGeometry x="530" y="390" width="100" height="60" as="geometry" />
        </mxCell>
        <mxCell id="QBS794zSs9PT1OMUkEBt-7" value="Нет" style="text;html=1;align=center;verticalAlign=middle;resizable=0;points=[];autosize=1;strokeColor=none;fillColor=none;fontSize=10;" vertex="1" parent="1">
          <mxGeometry x="478" y="397" width="40" height="30" as="geometry" />
        </mxCell>
        <mxCell id="QBS794zSs9PT1OMUkEBt-9" value="Извлечение cell_pos из queue" style="rounded=0;whiteSpace=wrap;html=1;fontSize=10;" vertex="1" parent="1">
          <mxGeometry x="354" y="480" width="120" height="60" as="geometry" />
        </mxCell>
        <mxCell id="QBS794zSs9PT1OMUkEBt-10" value="Получение ячейки cell = GetCell(cell_pos)" style="rounded=0;whiteSpace=wrap;html=1;fontSize=10;" vertex="1" parent="1">
          <mxGeometry x="354" y="555" width="120" height="60" as="geometry" />
        </mxCell>
        <mxCell id="QBS794zSs9PT1OMUkEBt-11" value="cell существует?" style="rhombus;whiteSpace=wrap;html=1;fontSize=10;" vertex="1" parent="1">
          <mxGeometry x="349" y="630" width="130" height="80" as="geometry" />
        </mxCell>
        <mxCell id="QBS794zSs9PT1OMUkEBt-12" value="Нет" style="text;html=1;align=center;verticalAlign=middle;resizable=0;points=[];autosize=1;strokeColor=none;fillColor=none;fontSize=10;" vertex="1" parent="1">
          <mxGeometry x="334" y="640" width="40" height="30" as="geometry" />
        </mxCell>
        <mxCell id="QBS794zSs9PT1OMUkEBt-13" value="cell-&amp;gt;cache_valid_ = false" style="rounded=0;whiteSpace=wrap;html=1;fontSize=10;" vertex="1" parent="1">
          <mxGeometry x="354" y="726" width="120" height="60" as="geometry" />
        </mxCell>
        <mxCell id="QBS794zSs9PT1OMUkEBt-14" value="Для каждой dep_pos в dependencies" style="strokeWidth=2;html=1;shape=mxgraph.flowchart.loop_limit;whiteSpace=wrap;fontSize=10;" vertex="1" parent="1">
          <mxGeometry x="364" y="810" width="100" height="60" as="geometry" />
        </mxCell>
        <mxCell id="QBS794zSs9PT1OMUkEBt-15" value="Нет" style="text;html=1;align=center;verticalAlign=middle;resizable=0;points=[];autosize=1;strokeColor=none;fillColor=none;fontSize=10;" vertex="1" parent="1">
          <mxGeometry x="320" y="817" width="40" height="30" as="geometry" />
        </mxCell>
        <mxCell id="QBS794zSs9PT1OMUkEBt-17" value="dep_pos не в invalidated?" style="rhombus;whiteSpace=wrap;html=1;fontSize=10;" vertex="1" parent="1">
          <mxGeometry x="344" y="890" width="140" height="80" as="geometry" />
        </mxCell>
        <mxCell id="QBS794zSs9PT1OMUkEBt-18" value="Добавление dep_pos в queue и invalidated" style="rounded=0;whiteSpace=wrap;html=1;fontSize=10;" vertex="1" parent="1">
          <mxGeometry x="200" y="290" width="120" height="60" as="geometry" />
        </mxCell>
        <mxCell id="QBS794zSs9PT1OMUkEBt-19" value="Нет" style="text;html=1;align=center;verticalAlign=middle;resizable=0;points=[];autosize=1;strokeColor=none;fillColor=none;fontSize=10;" vertex="1" parent="1">
          <mxGeometry x="482" y="905" width="40" height="30" as="geometry" />
        </mxCell>
        <mxCell id="QBS794zSs9PT1OMUkEBt-20" value="" style="endArrow=classic;html=1;rounded=0;exitX=0;exitY=0.5;exitDx=0;exitDy=0;entryX=0;entryY=0.5;entryDx=0;entryDy=0;fontSize=10;" edge="1" parent="1" source="QBS794zSs9PT1OMUkEBt-11" target="QBS794zSs9PT1OMUkEBt-5">
          <mxGeometry width="50" height="50" relative="1" as="geometry">
            <mxPoint x="220" y="600" as="sourcePoint" />
            <mxPoint x="270" y="550" as="targetPoint" />
            <Array as="points">
              <mxPoint x="200" y="670" />
              <mxPoint x="200" y="420" />
            </Array>
          </mxGeometry>
        </mxCell>
        <mxCell id="QBS794zSs9PT1OMUkEBt-21" value="" style="endArrow=none;html=1;rounded=0;entryX=0;entryY=0.5;entryDx=0;entryDy=0;entryPerimeter=0;fontSize=10;" edge="1" parent="1" target="QBS794zSs9PT1OMUkEBt-14">
          <mxGeometry width="50" height="50" relative="1" as="geometry">
            <mxPoint x="200" y="840" as="sourcePoint" />
            <mxPoint x="270" y="810" as="targetPoint" />
          </mxGeometry>
        </mxCell>
        <mxCell id="QBS794zSs9PT1OMUkEBt-22" value="" style="endArrow=none;html=1;rounded=0;fontSize=10;" edge="1" parent="1">
          <mxGeometry width="50" height="50" relative="1" as="geometry">
            <mxPoint x="200" y="840" as="sourcePoint" />
            <mxPoint x="200" y="670" as="targetPoint" />
          </mxGeometry>
        </mxCell>
        <mxCell id="QBS794zSs9PT1OMUkEBt-23" value="" style="endArrow=classic;html=1;rounded=0;entryX=0;entryY=0.5;entryDx=0;entryDy=0;entryPerimeter=0;exitX=1;exitY=0.5;exitDx=0;exitDy=0;fontSize=10;" edge="1" parent="1" source="QBS794zSs9PT1OMUkEBt-5" target="QBS794zSs9PT1OMUkEBt-6">
          <mxGeometry width="50" height="50" relative="1" as="geometry">
            <mxPoint x="460" y="470" as="sourcePoint" />
            <mxPoint x="510" y="420" as="targetPoint" />
          </mxGeometry>
        </mxCell>
        <mxCell id="QBS794zSs9PT1OMUkEBt-24" value="" style="endArrow=classic;html=1;rounded=0;exitX=1;exitY=0.5;exitDx=0;exitDy=0;entryX=1.004;entryY=0.668;entryDx=0;entryDy=0;entryPerimeter=0;fontSize=10;" edge="1" parent="1" source="QBS794zSs9PT1OMUkEBt-17" target="QBS794zSs9PT1OMUkEBt-14">
          <mxGeometry width="50" height="50" relative="1" as="geometry">
            <mxPoint x="530" y="930" as="sourcePoint" />
            <mxPoint x="470" y="850" as="targetPoint" />
            <Array as="points">
              <mxPoint x="560" y="930" />
              <mxPoint x="560" y="850" />
            </Array>
          </mxGeometry>
        </mxCell>
        <mxCell id="QBS794zSs9PT1OMUkEBt-25" value="" style="endArrow=classic;html=1;rounded=0;exitX=0.5;exitY=1;exitDx=0;exitDy=0;exitPerimeter=0;entryX=0.5;entryY=0;entryDx=0;entryDy=0;fontSize=10;" edge="1" parent="1" source="QBS794zSs9PT1OMUkEBt-1" target="QBS794zSs9PT1OMUkEBt-2">
          <mxGeometry width="50" height="50" relative="1" as="geometry">
            <mxPoint x="500" y="100" as="sourcePoint" />
            <mxPoint x="550" y="50" as="targetPoint" />
          </mxGeometry>
        </mxCell>
        <mxCell id="QBS794zSs9PT1OMUkEBt-26" value="" style="endArrow=classic;html=1;rounded=0;exitX=0.5;exitY=1;exitDx=0;exitDy=0;entryX=0.5;entryY=0;entryDx=0;entryDy=0;fontSize=10;" edge="1" parent="1" source="QBS794zSs9PT1OMUkEBt-2" target="QBS794zSs9PT1OMUkEBt-3">
          <mxGeometry width="50" height="50" relative="1" as="geometry">
            <mxPoint x="520" y="200" as="sourcePoint" />
            <mxPoint x="570" y="150" as="targetPoint" />
          </mxGeometry>
        </mxCell>
        <mxCell id="QBS794zSs9PT1OMUkEBt-27" value="" style="endArrow=classic;html=1;rounded=0;exitX=0.5;exitY=1;exitDx=0;exitDy=0;entryX=0.5;entryY=0;entryDx=0;entryDy=0;fontSize=10;" edge="1" parent="1" source="QBS794zSs9PT1OMUkEBt-3" target="QBS794zSs9PT1OMUkEBt-4">
          <mxGeometry width="50" height="50" relative="1" as="geometry">
            <mxPoint x="510" y="310" as="sourcePoint" />
            <mxPoint x="560" y="260" as="targetPoint" />
          </mxGeometry>
        </mxCell>
        <mxCell id="QBS794zSs9PT1OMUkEBt-28" value="" style="endArrow=classic;html=1;rounded=0;exitX=0.5;exitY=1;exitDx=0;exitDy=0;entryX=0.5;entryY=0;entryDx=0;entryDy=0;fontSize=10;" edge="1" parent="1" source="QBS794zSs9PT1OMUkEBt-4" target="QBS794zSs9PT1OMUkEBt-5">
          <mxGeometry width="50" height="50" relative="1" as="geometry">
            <mxPoint x="510" y="350" as="sourcePoint" />
            <mxPoint x="560" y="300" as="targetPoint" />
          </mxGeometry>
        </mxCell>
        <mxCell id="QBS794zSs9PT1OMUkEBt-29" value="" style="endArrow=classic;html=1;rounded=0;exitX=0.5;exitY=1;exitDx=0;exitDy=0;entryX=0.5;entryY=0;entryDx=0;entryDy=0;fontSize=10;" edge="1" parent="1" source="QBS794zSs9PT1OMUkEBt-5" target="QBS794zSs9PT1OMUkEBt-9">
          <mxGeometry width="50" height="50" relative="1" as="geometry">
            <mxPoint x="570" y="530" as="sourcePoint" />
            <mxPoint x="620" y="480" as="targetPoint" />
          </mxGeometry>
        </mxCell>
        <mxCell id="QBS794zSs9PT1OMUkEBt-30" value="Да" style="text;html=1;align=center;verticalAlign=middle;resizable=0;points=[];autosize=1;strokeColor=none;fillColor=none;fontSize=10;" vertex="1" parent="1">
          <mxGeometry x="410" y="448" width="40" height="30" as="geometry" />
        </mxCell>
        <mxCell id="QBS794zSs9PT1OMUkEBt-31" value="" style="endArrow=classic;html=1;rounded=0;exitX=0.5;exitY=1;exitDx=0;exitDy=0;entryX=0.5;entryY=0;entryDx=0;entryDy=0;fontSize=10;" edge="1" parent="1" source="QBS794zSs9PT1OMUkEBt-9" target="QBS794zSs9PT1OMUkEBt-10">
          <mxGeometry width="50" height="50" relative="1" as="geometry">
            <mxPoint x="240" y="510" as="sourcePoint" />
            <mxPoint x="290" y="460" as="targetPoint" />
          </mxGeometry>
        </mxCell>
        <mxCell id="QBS794zSs9PT1OMUkEBt-32" value="" style="endArrow=classic;html=1;rounded=0;entryX=0.5;entryY=0;entryDx=0;entryDy=0;exitX=0.5;exitY=1;exitDx=0;exitDy=0;fontSize=10;" edge="1" parent="1" source="QBS794zSs9PT1OMUkEBt-10" target="QBS794zSs9PT1OMUkEBt-11">
          <mxGeometry width="50" height="50" relative="1" as="geometry">
            <mxPoint x="250" y="610" as="sourcePoint" />
            <mxPoint x="300" y="560" as="targetPoint" />
          </mxGeometry>
        </mxCell>
        <mxCell id="QBS794zSs9PT1OMUkEBt-33" value="" style="endArrow=classic;html=1;rounded=0;exitX=0.5;exitY=1;exitDx=0;exitDy=0;entryX=0.5;entryY=0;entryDx=0;entryDy=0;fontSize=10;" edge="1" parent="1" source="QBS794zSs9PT1OMUkEBt-11" target="QBS794zSs9PT1OMUkEBt-13">
          <mxGeometry width="50" height="50" relative="1" as="geometry">
            <mxPoint x="640" y="680" as="sourcePoint" />
            <mxPoint x="690" y="630" as="targetPoint" />
          </mxGeometry>
        </mxCell>
        <mxCell id="QBS794zSs9PT1OMUkEBt-34" value="Да" style="text;html=1;align=center;verticalAlign=middle;resizable=0;points=[];autosize=1;strokeColor=none;fillColor=none;fontSize=10;" vertex="1" parent="1">
          <mxGeometry x="409" y="697" width="40" height="30" as="geometry" />
        </mxCell>
        <mxCell id="QBS794zSs9PT1OMUkEBt-35" value="" style="endArrow=classic;html=1;rounded=0;entryX=0.5;entryY=0;entryDx=0;entryDy=0;entryPerimeter=0;exitX=0.5;exitY=1;exitDx=0;exitDy=0;fontSize=10;" edge="1" parent="1" source="QBS794zSs9PT1OMUkEBt-13" target="QBS794zSs9PT1OMUkEBt-14">
          <mxGeometry width="50" height="50" relative="1" as="geometry">
            <mxPoint x="250" y="770" as="sourcePoint" />
            <mxPoint x="300" y="720" as="targetPoint" />
          </mxGeometry>
        </mxCell>
        <mxCell id="QBS794zSs9PT1OMUkEBt-36" value="" style="endArrow=classic;html=1;rounded=0;exitX=0.5;exitY=1;exitDx=0;exitDy=0;exitPerimeter=0;entryX=0.5;entryY=0;entryDx=0;entryDy=0;fontSize=10;" edge="1" parent="1" source="QBS794zSs9PT1OMUkEBt-14" target="QBS794zSs9PT1OMUkEBt-17">
          <mxGeometry width="50" height="50" relative="1" as="geometry">
            <mxPoint x="290" y="970" as="sourcePoint" />
            <mxPoint x="340" y="920" as="targetPoint" />
          </mxGeometry>
        </mxCell>
        <mxCell id="QBS794zSs9PT1OMUkEBt-37" value="Да" style="text;html=1;align=center;verticalAlign=middle;resizable=0;points=[];autosize=1;strokeColor=none;fillColor=none;fontSize=10;" vertex="1" parent="1">
          <mxGeometry x="411" y="869" width="40" height="30" as="geometry" />
        </mxCell>
        <mxCell id="QBS794zSs9PT1OMUkEBt-38" value="" style="endArrow=classic;html=1;rounded=0;exitX=0;exitY=0.5;exitDx=0;exitDy=0;entryX=0;entryY=0.5;entryDx=0;entryDy=0;fontSize=10;" edge="1" parent="1" source="QBS794zSs9PT1OMUkEBt-17" target="QBS794zSs9PT1OMUkEBt-18">
          <mxGeometry width="50" height="50" relative="1" as="geometry">
            <mxPoint x="150" y="940" as="sourcePoint" />
            <mxPoint x="200" y="890" as="targetPoint" />
            <Array as="points">
              <mxPoint x="120" y="930" />
              <mxPoint x="120" y="320" />
            </Array>
          </mxGeometry>
        </mxCell>
        <mxCell id="QBS794zSs9PT1OMUkEBt-40" value="" style="endArrow=none;html=1;rounded=0;exitX=0.5;exitY=1;exitDx=0;exitDy=0;fontSize=10;" edge="1" parent="1">
          <mxGeometry width="50" height="50" relative="1" as="geometry">
            <mxPoint x="264" y="350" as="sourcePoint" />
            <mxPoint x="414" y="360" as="targetPoint" />
            <Array as="points">
              <mxPoint x="264" y="360" />
            </Array>
          </mxGeometry>
        </mxCell>
        <mxCell id="QBS794zSs9PT1OMUkEBt-41" value="&lt;font style=&quot;font-size: 10px;&quot;&gt;Да&lt;/font&gt;" style="text;html=1;align=center;verticalAlign=middle;resizable=0;points=[];autosize=1;strokeColor=none;fillColor=none;" vertex="1" parent="1">
          <mxGeometry x="312" y="907" width="40" height="30" as="geometry" />
        </mxCell>
      </root>
    </mxGraphModel>
  </diagram>
  <diagram id="uVN_RCES3IyCvLSoc2G0" name="Страница — 4">
    <mxGraphModel dx="1434" dy="746" grid="1" gridSize="10" guides="1" tooltips="1" connect="1" arrows="1" fold="1" page="1" pageScale="1" pageWidth="827" pageHeight="1169" math="0" shadow="0">
      <root>
        <mxCell id="0" />
        <mxCell id="1" parent="0" />
        <mxCell id="Lo7FTYmDT1Ql4o9AqT71-1" value="Sheet::SetCell(pos, text)" style="strokeWidth=2;html=1;shape=mxgraph.flowchart.terminator;whiteSpace=wrap;fontSize=10;" vertex="1" parent="1">
          <mxGeometry x="350" y="70" width="100" height="60" as="geometry" />
        </mxCell>
        <mxCell id="Lo7FTYmDT1Ql4o9AqT71-3" value="Проверка pos.IsValid()" style="rhombus;whiteSpace=wrap;html=1;fontSize=10;" vertex="1" parent="1">
          <mxGeometry x="330" y="152" width="140" height="70" as="geometry" />
        </mxCell>
        <mxCell id="Lo7FTYmDT1Ql4o9AqT71-4" value="Нет" style="text;html=1;align=center;verticalAlign=middle;resizable=0;points=[];autosize=1;strokeColor=none;fillColor=none;fontSize=10;" vertex="1" parent="1">
          <mxGeometry x="460" y="157" width="40" height="30" as="geometry" />
        </mxCell>
        <mxCell id="Lo7FTYmDT1Ql4o9AqT71-5" value="Выброс InvalidPositionException" style="strokeWidth=2;html=1;shape=mxgraph.flowchart.terminator;whiteSpace=wrap;fontSize=10;" vertex="1" parent="1">
          <mxGeometry x="520" y="157" width="130" height="60" as="geometry" />
        </mxCell>
        <mxCell id="Lo7FTYmDT1Ql4o9AqT71-8" value="Получение ячейки cell = GetCell(pos)" style="rounded=0;whiteSpace=wrap;html=1;fontSize=10;" vertex="1" parent="1">
          <mxGeometry x="340" y="250" width="120" height="60" as="geometry" />
        </mxCell>
        <mxCell id="Lo7FTYmDT1Ql4o9AqT71-9" value="Вызов cell-&amp;gt;Set(text)" style="rounded=0;whiteSpace=wrap;html=1;fontSize=10;" vertex="1" parent="1">
          <mxGeometry x="340" y="330" width="120" height="60" as="geometry" />
        </mxCell>
        <mxCell id="Lo7FTYmDT1Ql4o9AqT71-10" value="Получение new_dependencies из cell" style="rounded=0;whiteSpace=wrap;html=1;fontSize=10;" vertex="1" parent="1">
          <mxGeometry x="340" y="410" width="120" height="60" as="geometry" />
        </mxCell>
        <mxCell id="Lo7FTYmDT1Ql4o9AqT71-11" value="Проверка HasCircularDependencies(pos, new_dependencies)" style="rhombus;whiteSpace=wrap;html=1;fontSize=10;" vertex="1" parent="1">
          <mxGeometry x="320" y="490" width="160" height="80" as="geometry" />
        </mxCell>
        <mxCell id="Lo7FTYmDT1Ql4o9AqT71-12" value="Выброс CircularDependencyException" style="strokeWidth=2;html=1;shape=mxgraph.flowchart.terminator;whiteSpace=wrap;fontSize=10;" vertex="1" parent="1">
          <mxGeometry x="520" y="500" width="150" height="60" as="geometry" />
        </mxCell>
        <mxCell id="Lo7FTYmDT1Ql4o9AqT71-13" value="Вызов UpdateDependencies(pos, new_dependencies)" style="rounded=0;whiteSpace=wrap;html=1;fontSize=10;" vertex="1" parent="1">
          <mxGeometry x="340" y="590" width="120" height="60" as="geometry" />
        </mxCell>
        <mxCell id="Lo7FTYmDT1Ql4o9AqT71-14" value="Вызов InvalidateCache(pos)" style="rounded=0;whiteSpace=wrap;html=1;fontSize=10;" vertex="1" parent="1">
          <mxGeometry x="340" y="670" width="120" height="60" as="geometry" />
        </mxCell>
        <mxCell id="Lo7FTYmDT1Ql4o9AqT71-15" value="Конец" style="strokeWidth=2;html=1;shape=mxgraph.flowchart.terminator;whiteSpace=wrap;fontSize=10;" vertex="1" parent="1">
          <mxGeometry x="350" y="750" width="100" height="60" as="geometry" />
        </mxCell>
        <mxCell id="Lo7FTYmDT1Ql4o9AqT71-16" value="Да" style="text;html=1;align=center;verticalAlign=middle;resizable=0;points=[];autosize=1;strokeColor=none;fillColor=none;fontSize=10;" vertex="1" parent="1">
          <mxGeometry x="360" y="208" width="40" height="30" as="geometry" />
        </mxCell>
        <mxCell id="Lo7FTYmDT1Ql4o9AqT71-17" value="Да" style="text;html=1;align=center;verticalAlign=middle;resizable=0;points=[];autosize=1;strokeColor=none;fillColor=none;fontSize=10;" vertex="1" parent="1">
          <mxGeometry x="460" y="488" width="40" height="30" as="geometry" />
        </mxCell>
        <mxCell id="Lo7FTYmDT1Ql4o9AqT71-18" value="Нет" style="text;html=1;align=center;verticalAlign=middle;resizable=0;points=[];autosize=1;strokeColor=none;fillColor=none;fontSize=10;" vertex="1" parent="1">
          <mxGeometry x="360" y="558" width="40" height="30" as="geometry" />
        </mxCell>
        <mxCell id="Lo7FTYmDT1Ql4o9AqT71-21" value="" style="endArrow=classic;html=1;rounded=0;entryX=0.5;entryY=0;entryDx=0;entryDy=0;exitX=0.5;exitY=1;exitDx=0;exitDy=0;exitPerimeter=0;" edge="1" parent="1" source="Lo7FTYmDT1Ql4o9AqT71-1" target="Lo7FTYmDT1Ql4o9AqT71-3">
          <mxGeometry width="50" height="50" relative="1" as="geometry">
            <mxPoint x="300" y="180" as="sourcePoint" />
            <mxPoint x="350" y="130" as="targetPoint" />
          </mxGeometry>
        </mxCell>
        <mxCell id="Lo7FTYmDT1Ql4o9AqT71-22" value="" style="endArrow=classic;html=1;rounded=0;exitX=1;exitY=0.5;exitDx=0;exitDy=0;entryX=0;entryY=0.5;entryDx=0;entryDy=0;entryPerimeter=0;" edge="1" parent="1" source="Lo7FTYmDT1Ql4o9AqT71-3" target="Lo7FTYmDT1Ql4o9AqT71-5">
          <mxGeometry width="50" height="50" relative="1" as="geometry">
            <mxPoint x="530" y="300" as="sourcePoint" />
            <mxPoint x="580" y="250" as="targetPoint" />
          </mxGeometry>
        </mxCell>
        <mxCell id="Lo7FTYmDT1Ql4o9AqT71-23" value="" style="endArrow=classic;html=1;rounded=0;entryX=0.5;entryY=0;entryDx=0;entryDy=0;exitX=0.5;exitY=1;exitDx=0;exitDy=0;" edge="1" parent="1" source="Lo7FTYmDT1Ql4o9AqT71-3" target="Lo7FTYmDT1Ql4o9AqT71-8">
          <mxGeometry width="50" height="50" relative="1" as="geometry">
            <mxPoint x="440" y="230" as="sourcePoint" />
            <mxPoint x="180" y="190" as="targetPoint" />
          </mxGeometry>
        </mxCell>
        <mxCell id="Lo7FTYmDT1Ql4o9AqT71-24" value="" style="endArrow=classic;html=1;rounded=0;entryX=0.5;entryY=0;entryDx=0;entryDy=0;exitX=0.5;exitY=1;exitDx=0;exitDy=0;" edge="1" parent="1" source="Lo7FTYmDT1Ql4o9AqT71-8" target="Lo7FTYmDT1Ql4o9AqT71-9">
          <mxGeometry width="50" height="50" relative="1" as="geometry">
            <mxPoint x="230" y="340" as="sourcePoint" />
            <mxPoint x="280" y="290" as="targetPoint" />
          </mxGeometry>
        </mxCell>
        <mxCell id="Lo7FTYmDT1Ql4o9AqT71-25" value="" style="endArrow=classic;html=1;rounded=0;entryX=0.5;entryY=0;entryDx=0;entryDy=0;exitX=0.5;exitY=1;exitDx=0;exitDy=0;" edge="1" parent="1" source="Lo7FTYmDT1Ql4o9AqT71-9" target="Lo7FTYmDT1Ql4o9AqT71-10">
          <mxGeometry width="50" height="50" relative="1" as="geometry">
            <mxPoint x="230" y="420" as="sourcePoint" />
            <mxPoint x="280" y="370" as="targetPoint" />
          </mxGeometry>
        </mxCell>
        <mxCell id="Lo7FTYmDT1Ql4o9AqT71-26" value="" style="endArrow=classic;html=1;rounded=0;entryX=0.5;entryY=0;entryDx=0;entryDy=0;exitX=0.5;exitY=1;exitDx=0;exitDy=0;" edge="1" parent="1" source="Lo7FTYmDT1Ql4o9AqT71-10" target="Lo7FTYmDT1Ql4o9AqT71-11">
          <mxGeometry width="50" height="50" relative="1" as="geometry">
            <mxPoint x="220" y="520" as="sourcePoint" />
            <mxPoint x="270" y="470" as="targetPoint" />
          </mxGeometry>
        </mxCell>
        <mxCell id="Lo7FTYmDT1Ql4o9AqT71-27" value="" style="endArrow=classic;html=1;rounded=0;entryX=0;entryY=0.5;entryDx=0;entryDy=0;entryPerimeter=0;exitX=1;exitY=0.5;exitDx=0;exitDy=0;" edge="1" parent="1" source="Lo7FTYmDT1Ql4o9AqT71-11" target="Lo7FTYmDT1Ql4o9AqT71-12">
          <mxGeometry width="50" height="50" relative="1" as="geometry">
            <mxPoint x="220" y="540" as="sourcePoint" />
            <mxPoint x="270" y="490" as="targetPoint" />
          </mxGeometry>
        </mxCell>
        <mxCell id="Lo7FTYmDT1Ql4o9AqT71-28" value="" style="endArrow=classic;html=1;rounded=0;entryX=0.5;entryY=0;entryDx=0;entryDy=0;" edge="1" parent="1" source="Lo7FTYmDT1Ql4o9AqT71-11" target="Lo7FTYmDT1Ql4o9AqT71-13">
          <mxGeometry width="50" height="50" relative="1" as="geometry">
            <mxPoint x="210" y="600" as="sourcePoint" />
            <mxPoint x="260" y="550" as="targetPoint" />
          </mxGeometry>
        </mxCell>
        <mxCell id="Lo7FTYmDT1Ql4o9AqT71-29" value="" style="endArrow=classic;html=1;rounded=0;entryX=0.5;entryY=0;entryDx=0;entryDy=0;exitX=0.5;exitY=1;exitDx=0;exitDy=0;" edge="1" parent="1" source="Lo7FTYmDT1Ql4o9AqT71-13" target="Lo7FTYmDT1Ql4o9AqT71-14">
          <mxGeometry width="50" height="50" relative="1" as="geometry">
            <mxPoint x="260" y="690" as="sourcePoint" />
            <mxPoint x="310" y="640" as="targetPoint" />
          </mxGeometry>
        </mxCell>
        <mxCell id="Lo7FTYmDT1Ql4o9AqT71-30" value="" style="endArrow=classic;html=1;rounded=0;entryX=0.5;entryY=0;entryDx=0;entryDy=0;entryPerimeter=0;exitX=0.5;exitY=1;exitDx=0;exitDy=0;" edge="1" parent="1" source="Lo7FTYmDT1Ql4o9AqT71-14" target="Lo7FTYmDT1Ql4o9AqT71-15">
          <mxGeometry width="50" height="50" relative="1" as="geometry">
            <mxPoint x="190" y="690" as="sourcePoint" />
            <mxPoint x="240" y="640" as="targetPoint" />
          </mxGeometry>
        </mxCell>
      </root>
    </mxGraphModel>
  </diagram>
</mxfile>
